<?xml version="1.0" encoding="utf-8"?>
<!-- Generator: Adobe Illustrator 16.0.0, SVG Export Plug-In . SVG Version: 6.00 Build 0)  -->
<!DOCTYPE svg PUBLIC "-//W3C//DTD SVG 1.1//EN" "http://www.w3.org/Graphics/SVG/1.1/DTD/svg11.dtd">
<svg version="1.1" id="Layer_1" xmlns="http://www.w3.org/2000/svg" xmlns:xlink="http://www.w3.org/1999/xlink" x="0px" y="0px"
	 width="116.855px" height="49.992px" viewBox="0 0 116.855 49.992" enable-background="new 0 0 116.855 49.992"
	 xml:space="preserve">
<g>
	<path fill="#2100AD" d="M0,2.134h21.532c9.06,0,15.099,5.252,15.099,13.065c0,5.515-2.559,9.715-8.598,11.358v0.193
		c4.33,1.25,6.563,3.744,7.153,9.456c0.655,6.631,0.394,11.686,2.034,12.408v0.458h-9.125c-1.182-0.525-1.309-5.776-1.703-10.829
		c-0.398-5.122-3.284-8.012-9.191-8.012H9.518v18.841H0V2.134z M9.518,22.88h10.111c5.184,0,7.747-2.691,7.747-6.433
		c0-3.808-2.429-6.632-7.483-6.632H9.518V22.88z"/>
	<path fill="#2100AD" d="M62.299,49.073v-3.937h-0.195c-2.301,3.082-4.924,4.855-9.653,4.855c-7.479,0-11.684-4.792-11.684-12.145
		V15.396h8.866v20.942c0,3.938,1.771,6.105,5.576,6.105c4.204,0,6.764-3.15,6.764-7.615V15.396h8.929v33.677H62.299z"/>
	<rect x="75.694" y="15.396" fill="#2100AD" width="8.929" height="33.677"/>
	<path fill="#2100AD" d="M88.297,42.244l17.333-19.625V22.42H90.268v-7.024H116v7.155L99.065,41.721v0.197h17.79v7.155H88.297
		V42.244z"/>
	<circle fill="#2100AD" cx="80.183" cy="6.081" r="6.081"/>
</g>
</svg>
